<?xml version="1.0" encoding="iso-8859-1"?>
<!-- Generator: Adobe Illustrator 22.0.1, SVG Export Plug-In . SVG Version: 6.00 Build 0)  -->
<svg version="1.1" id="Layer_1" xmlns="http://www.w3.org/2000/svg" xmlns:xlink="http://www.w3.org/1999/xlink" x="0px" y="0px"
	 viewBox="0 0 309 79" style="enable-background:new 0 0 309 79;" xml:space="preserve">
<path style="fill:#90AA4E;" d="M152.695,43.861L152.695,43.861c-3.438-13.714,6.919-27.653,23.133-31.134l45.506-9.767
	c27.612-5.926,54.742,8.202,60.597,31.556l0.032,0.126c3.438,13.714-6.919,27.653-23.133,31.134l-45.357,9.735
	C185.779,81.455,158.567,67.285,152.695,43.861z"/>
<g>
	<path style="fill:#FFFFFF;" d="M87.172,54h-2.686c-2.686,0-4.78-0.636-6.284-1.906C76.788,53.364,74.962,54,72.724,54H53.496
		c-3.545,0-6.562-1.244-9.05-3.732c-2.507-2.489-3.76-5.515-3.76-9.078c0-2.435,0.645-4.717,1.934-6.848
		c1.289-2.112,3.017-3.724,5.183-4.834l1.987-0.994c0.107-0.054,0.224-0.081,0.349-0.081c0.071,0,0.143,0.009,0.215,0.027
		c0.179,0.072,0.313,0.188,0.403,0.349l2.014,3.948c0.054,0.107,0.081,0.224,0.081,0.349c0,0.071-0.009,0.144-0.027,0.215
		c-0.072,0.179-0.197,0.313-0.376,0.403l-1.96,1.02c-1.2,0.609-2.158,1.495-2.874,2.659c-0.716,1.182-1.074,2.444-1.074,3.786
		c0,1.916,0.68,3.563,2.041,4.941c1.36,1.344,2.999,2.015,4.915,2.015h19.202c0.788,0,1.325-0.144,1.611-0.43
		c0.304-0.305,0.457-0.842,0.457-1.611V26.661c0-0.483,0.242-0.725,0.725-0.725h4.404c0.501,0,0.752,0.242,0.752,0.725V46.83
		c0,0.322,0.054,0.572,0.161,0.752c0.447,0.375,1.316,0.563,2.605,0.563h3.76V54z M64.56,59.156c0.483,0,0.725,0.242,0.725,0.725
		v4.271c0,0.501-0.242,0.752-0.725,0.752h-4.055c-0.466,0-0.698-0.251-0.698-0.752v-4.271c0-0.482,0.232-0.725,0.698-0.725H64.56z"
		/>
	<path style="fill:#FFFFFF;" d="M85.561,54v-5.854h9.05c0.734-0.036,1.235-0.188,1.504-0.456c0.304-0.305,0.457-0.842,0.457-1.611
		V26.634c0-0.483,0.242-0.725,0.725-0.725h4.404c0.483,0,0.725,0.242,0.725,0.725v19.444c0,2.416-0.725,4.341-2.175,5.773
		S96.885,54,94.504,54H85.561z M91.792,59.506c0.483,0,0.725,0.241,0.725,0.725v4.27c0,0.502-0.242,0.752-0.725,0.752h-4.028
		c-0.483,0-0.725-0.25-0.725-0.752v-4.27c0-0.483,0.242-0.725,0.725-0.725H91.792z M100.6,59.506c0.483,0,0.725,0.241,0.725,0.725
		v4.27c0,0.502-0.242,0.752-0.725,0.752h-4.028c-0.501,0-0.752-0.25-0.752-0.752v-4.27c0-0.483,0.25-0.725,0.752-0.725H100.6z"/>
	<path style="fill:#FFFFFF;" d="M122.192,24.835c3.455,0,6.409,1.227,8.862,3.679c2.435,2.435,3.652,5.38,3.652,8.835v16.382
		c0,3.187-1.164,5.935-3.491,8.245c-2.31,2.327-5.058,3.49-8.245,3.49h-6.606c-0.483,0-0.725-0.25-0.725-0.752v-4.377
		c0-0.501,0.242-0.752,0.725-0.752h6.606c1.54,0,2.882-0.546,4.028-1.639c1.146-1.092,1.763-2.407,1.853-3.947h-6.66
		c-3.456,0-6.41-1.218-8.862-3.652c-2.453-2.453-3.679-5.407-3.679-8.862V37.35c0-3.455,1.226-6.4,3.679-8.835
		C115.782,26.062,118.736,24.835,122.192,24.835z M128.852,37.35c0-1.844-0.654-3.41-1.96-4.699c-1.307-1.308-2.874-1.961-4.7-1.961
		c-1.844,0-3.42,0.653-4.727,1.961c-1.307,1.289-1.96,2.855-1.96,4.699v4.136c0,1.826,0.653,3.393,1.96,4.7
		c1.307,1.307,2.882,1.96,4.727,1.96h6.66V37.35z"/>
	<path style="fill:#FFFFFF;" d="M202.141,54h-2.98c-2.668,0-4.771-0.645-6.312-1.934C191.434,53.355,189.607,54,187.37,54h-19.229
		c-3.509,0-6.517-1.244-9.023-3.732c-2.524-2.543-3.786-5.577-3.786-9.104c0-2.435,0.652-4.718,1.96-6.849
		c1.289-2.112,3.017-3.724,5.183-4.833l1.988-0.994c0.107-0.054,0.223-0.081,0.349-0.081c0.054,0,0.116,0.009,0.188,0.027
		c0.215,0.072,0.357,0.197,0.43,0.376l2.014,3.921c0.054,0.107,0.08,0.206,0.08,0.295c0,0.09-0.018,0.18-0.053,0.27
		c-0.037,0.16-0.162,0.295-0.377,0.402l-1.934,1.021c-1.199,0.608-2.157,1.495-2.873,2.659c-0.734,1.182-1.102,2.443-1.102,3.786
		c0,1.897,0.681,3.545,2.041,4.941c1.379,1.343,3.018,2.023,4.915,2.041h19.336c0.698,0,1.199-0.152,1.504-0.456
		c0.304-0.305,0.456-0.842,0.456-1.611V26.634c0-0.501,0.242-0.752,0.726-0.752h4.404c0.483,0,0.726,0.251,0.726,0.752V46.83
		c0,0.357,0.07,0.608,0.215,0.752c0.393,0.357,1.244,0.546,2.551,0.563h4.082V54z M170.801,24.969c-0.484,0-0.726-0.242-0.726-0.725
		v-4.297c0-0.483,0.241-0.725,0.726-0.725h4.055c0.465,0,0.698,0.242,0.698,0.725v4.297c0,0.483-0.233,0.725-0.698,0.725H170.801z
		 M179.609,24.969c-0.502,0-0.752-0.242-0.752-0.725v-4.297c0-0.483,0.25-0.725,0.752-0.725h4.027c0.484,0,0.726,0.242,0.726,0.725
		v4.297c0,0.483-0.241,0.725-0.726,0.725H179.609z"/>
	<path style="fill:#FFFFFF;" d="M223.921,54h-2.981c-2.668,0-4.763-0.645-6.284-1.934c-1.414,1.289-3.24,1.934-5.479,1.934
		c-0.09,0-0.152,0-0.188,0h-8.728v-5.854h9.023c0.698-0.018,1.199-0.179,1.504-0.483c0.286-0.269,0.43-0.806,0.43-1.611V26.634
		c0-0.501,0.242-0.752,0.725-0.752h4.404c0.484,0,0.726,0.251,0.726,0.752v20.168c0,0.358,0.081,0.608,0.241,0.752
		c0.358,0.394,1.164,0.591,2.418,0.591h4.189V54z M212.131,19.84c-0.483,0-0.726-0.242-0.726-0.725v-4.27
		c0-0.483,0.242-0.725,0.726-0.725h4.056c0.482,0,0.725,0.242,0.725,0.725v4.27c0,0.483-0.242,0.725-0.725,0.725H212.131z"/>
	<path style="fill:#FFFFFF;" d="M222.041,54v-5.854h9.533c0.734-0.036,1.236-0.188,1.504-0.456c0.305-0.287,0.457-0.824,0.457-1.611
		V26.634c0-0.483,0.251-0.725,0.752-0.725h4.377c0.502,0,0.752,0.242,0.752,0.725v20.168c0,0.412,0.063,0.662,0.188,0.752
		c0.376,0.376,1.235,0.573,2.578,0.591h4.056V54h-2.955c-2.686,0-4.789-0.636-6.311-1.906C235.54,53.364,233.714,54,231.494,54
		H222.041z M230.742,59.506c0.483,0,0.725,0.241,0.725,0.725v4.27c0,0.502-0.241,0.752-0.725,0.752h-4.028
		c-0.483,0-0.726-0.25-0.726-0.752v-4.27c0-0.483,0.242-0.725,0.726-0.725H230.742z M239.551,59.506
		c0.483,0,0.725,0.241,0.725,0.725v4.27c0,0.502-0.241,0.752-0.725,0.752h-4.028c-0.501,0-0.752-0.25-0.752-0.752v-4.27
		c0-0.483,0.251-0.725,0.752-0.725H239.551z"/>
	<path style="fill:#FFFFFF;" d="M244.357,54v-5.854h9.426V37.35c0-3.455,1.218-6.409,3.652-8.862
		c2.453-2.435,5.407-3.652,8.863-3.652c3.438,0,6.382,1.218,8.835,3.652c2.453,2.453,3.679,5.407,3.679,8.862v4.136
		c0,3.438-1.226,6.383-3.679,8.835c-2.453,2.453-5.397,3.68-8.835,3.68H244.357z M259.639,48.146h6.66
		c1.826-0.018,3.393-0.671,4.699-1.96c1.307-1.308,1.961-2.874,1.961-4.7V37.35c0-1.844-0.654-3.42-1.961-4.727
		s-2.873-1.961-4.699-1.961c-1.845,0-3.411,0.654-4.7,1.961c-1.307,1.307-1.96,2.883-1.96,4.727V48.146z"/>
</g>
</svg>
