<?xml version="1.0" encoding="iso-8859-1"?>
<!-- Generator: Adobe Illustrator 22.0.1, SVG Export Plug-In . SVG Version: 6.00 Build 0)  -->
<svg version="1.1" id="Layer_1" xmlns="http://www.w3.org/2000/svg" xmlns:xlink="http://www.w3.org/1999/xlink" x="0px" y="0px"
	 viewBox="0 0 1024 768" style="enable-background:new 0 0 1024 768;" xml:space="preserve">
<path style="fill:#90AA4E;" d="M510.339,340.115L510.339,340.115c-3.792-35.902,22.239-68.08,58.14-71.872l100.757-10.642
	c61.137-6.457,115.933,37.87,122.39,99.007l0.035,0.33c3.792,35.902-22.239,68.08-58.14,71.872l-100.428,10.607
	C571.774,445.894,516.815,401.435,510.339,340.115z"/>
<g>
	<path style="fill:#F7F7F7;" d="M382.213,383.945h-5.593c-5.593,0-9.955-1.296-13.087-3.889c-2.946,2.593-6.749,3.889-11.409,3.889
		H312.08c-7.382,0-13.666-2.537-18.848-7.613c-5.22-5.075-7.83-11.247-7.83-18.514c0-4.966,1.342-9.621,4.027-13.968
		c2.685-4.308,6.282-7.595,10.794-9.859l4.139-2.026c0.224-0.109,0.466-0.164,0.727-0.164c0.148,0,0.298,0.019,0.447,0.055
		c0.372,0.146,0.652,0.384,0.839,0.712l4.194,8.052c0.112,0.219,0.168,0.457,0.168,0.712c0,0.146-0.019,0.293-0.056,0.438
		c-0.149,0.365-0.411,0.64-0.783,0.821l-4.083,2.082c-2.499,1.241-4.494,3.049-5.984,5.422c-1.492,2.41-2.237,4.984-2.237,7.724
		c0,3.907,1.417,7.267,4.25,10.078c2.833,2.739,6.245,4.108,10.235,4.108h39.988c1.641,0,2.759-0.292,3.356-0.877
		c0.633-0.62,0.951-1.716,0.951-3.286v-39.656c0-0.985,0.503-1.479,1.51-1.479h9.172c1.043,0,1.566,0.493,1.566,1.479v41.135
		c0,0.657,0.112,1.17,0.335,1.534c0.932,0.767,2.741,1.15,5.425,1.15h7.83V383.945z M335.122,394.462c1.007,0,1.51,0.493,1.51,1.479
		v8.709c0,1.022-0.503,1.534-1.51,1.534h-8.445c-0.97,0-1.454-0.512-1.454-1.534v-8.709c0-0.985,0.484-1.479,1.454-1.479H335.122z"
		/>
	<path style="fill:#F7F7F7;" d="M378.857,383.945v-11.94h18.848c1.528-0.073,2.573-0.384,3.132-0.932
		c0.634-0.62,0.951-1.716,0.951-3.286v-39.656c0-0.986,0.503-1.479,1.51-1.479h9.172c1.007,0,1.51,0.492,1.51,1.479v39.656
		c0,4.93-1.51,8.855-4.53,11.776c-3.02,2.922-7.01,4.382-11.968,4.382H378.857z M391.832,395.174c1.007,0,1.51,0.493,1.51,1.479
		v8.71c0,1.021-0.503,1.533-1.51,1.533h-8.389c-1.006,0-1.51-0.512-1.51-1.533v-8.71c0-0.985,0.503-1.479,1.51-1.479H391.832z
		 M410.176,395.174c1.007,0,1.51,0.493,1.51,1.479v8.71c0,1.021-0.503,1.533-1.51,1.533h-8.389c-1.044,0-1.566-0.512-1.566-1.533
		v-8.71c0-0.985,0.522-1.479,1.566-1.479H410.176z"/>
	<path style="fill:#F7F7F7;" d="M455.142,324.461c7.195,0,13.347,2.502,18.456,7.504c5.07,4.967,7.606,10.974,7.606,18.021v33.412
		c0,6.499-2.424,12.105-7.271,16.815c-4.81,4.747-10.534,7.121-17.17,7.121h-13.758c-1.007,0-1.51-0.512-1.51-1.534v-8.928
		c0-1.022,0.503-1.534,1.51-1.534h13.758c3.207,0,6.003-1.114,8.389-3.341c2.386-2.228,3.672-4.912,3.859-8.052h-13.87
		c-7.196,0-13.349-2.482-18.456-7.449c-5.109-5.002-7.662-11.027-7.662-18.075v-8.436c0-7.047,2.553-13.054,7.662-18.021
		C441.793,326.963,447.946,324.461,455.142,324.461z M469.012,349.985c0-3.761-1.361-6.956-4.083-9.585
		c-2.722-2.665-5.984-3.999-9.787-3.999c-3.841,0-7.122,1.334-9.843,3.999c-2.722,2.629-4.083,5.824-4.083,9.585v8.436
		c0,3.725,1.361,6.92,4.083,9.585c2.721,2.666,6.002,3.999,9.843,3.999h13.87V349.985z"/>
	<path style="fill:#F7F7F7;" d="M621.638,383.945h-6.208c-5.557,0-9.938-1.314-13.143-3.943c-2.946,2.629-6.75,3.943-11.41,3.943
		h-40.043c-7.309,0-13.572-2.537-18.792-7.613c-5.257-5.185-7.886-11.374-7.886-18.568c0-4.966,1.36-9.621,4.082-13.968
		c2.686-4.308,6.283-7.595,10.795-9.859l4.139-2.026c0.223-0.109,0.465-0.164,0.727-0.164c0.111,0,0.242,0.019,0.392,0.055
		c0.447,0.146,0.745,0.402,0.896,0.767l4.193,7.997c0.112,0.219,0.168,0.42,0.168,0.603c0,0.184-0.037,0.365-0.111,0.548
		c-0.075,0.328-0.336,0.603-0.783,0.821l-4.027,2.082c-2.498,1.241-4.492,3.049-5.983,5.422c-1.529,2.41-2.294,4.984-2.294,7.724
		c0,3.871,1.417,7.229,4.251,10.078c2.87,2.738,6.282,4.127,10.235,4.163h40.268c1.453,0,2.497-0.311,3.131-0.932
		c0.635-0.62,0.951-1.716,0.951-3.286v-39.656c0-1.021,0.504-1.533,1.51-1.533h9.172c1.008,0,1.511,0.512,1.511,1.533v41.189
		c0,0.731,0.148,1.242,0.447,1.534c0.819,0.73,2.591,1.114,5.313,1.15h8.501V383.945z M556.37,324.735
		c-1.007,0-1.51-0.493-1.51-1.479v-8.764c0-0.986,0.503-1.479,1.51-1.479h8.445c0.97,0,1.454,0.492,1.454,1.479v8.764
		c0,0.986-0.484,1.479-1.454,1.479H556.37z M574.715,324.735c-1.045,0-1.566-0.493-1.566-1.479v-8.764
		c0-0.986,0.521-1.479,1.566-1.479h8.389c1.007,0,1.51,0.492,1.51,1.479v8.764c0,0.986-0.503,1.479-1.51,1.479H574.715z"/>
	<path style="fill:#F7F7F7;" d="M666.994,383.945h-6.207c-5.557,0-9.918-1.314-13.088-3.943c-2.945,2.629-6.748,3.943-11.408,3.943
		c-0.188,0-0.317,0-0.393,0h-18.176v-11.94h18.791c1.455-0.036,2.498-0.365,3.133-0.986c0.596-0.548,0.895-1.643,0.895-3.286
		v-39.602c0-1.021,0.504-1.533,1.51-1.533h9.172c1.008,0,1.511,0.512,1.511,1.533v41.135c0,0.731,0.167,1.242,0.503,1.534
		c0.746,0.804,2.424,1.205,5.033,1.205h8.725V383.945z M642.442,314.273c-1.007,0-1.51-0.493-1.51-1.479v-8.709
		c0-0.985,0.503-1.479,1.51-1.479h8.445c1.007,0,1.51,0.493,1.51,1.479v8.709c0,0.986-0.503,1.479-1.51,1.479H642.442z"/>
	<path style="fill:#F7F7F7;" d="M663.08,383.945v-11.94h19.854c1.529-0.073,2.572-0.384,3.133-0.932
		c0.633-0.583,0.95-1.679,0.95-3.286v-39.656c0-0.986,0.521-1.479,1.565-1.479h9.117c1.043,0,1.565,0.492,1.565,1.479v41.135
		c0,0.841,0.13,1.352,0.392,1.534c0.783,0.767,2.572,1.169,5.369,1.205h8.445v11.94h-6.152c-5.593,0-9.975-1.296-13.143-3.889
		c-2.984,2.593-6.787,3.889-11.41,3.889H663.08z M681.2,395.174c1.007,0,1.51,0.493,1.51,1.479v8.71c0,1.021-0.503,1.533-1.51,1.533
		h-8.39c-1.006,0-1.51-0.512-1.51-1.533v-8.71c0-0.985,0.504-1.479,1.51-1.479H681.2z M699.545,395.174
		c1.006,0,1.51,0.493,1.51,1.479v8.71c0,1.021-0.504,1.533-1.51,1.533h-8.39c-1.044,0-1.565-0.512-1.565-1.533v-8.71
		c0-0.985,0.521-1.479,1.565-1.479H699.545z"/>
	<path style="fill:#F7F7F7;" d="M709.555,383.945v-11.94h19.631v-22.02c0-7.047,2.535-13.072,7.606-18.075
		c5.107-4.966,11.26-7.449,18.456-7.449c7.158,0,13.291,2.483,18.4,7.449c5.107,5.003,7.662,11.028,7.662,18.075v8.436
		c0,7.011-2.555,13.018-7.662,18.021c-5.109,5.003-11.242,7.504-18.4,7.504H709.555z M741.378,372.005h13.87
		c3.803-0.036,7.064-1.369,9.787-3.999c2.721-2.665,4.082-5.86,4.082-9.585v-8.436c0-3.761-1.361-6.974-4.082-9.64
		c-2.723-2.665-5.984-3.999-9.787-3.999c-3.841,0-7.104,1.334-9.787,3.999c-2.723,2.666-4.083,5.879-4.083,9.64V372.005z"/>
</g>
</svg>
